<svg width="39" height="37" viewBox="0 0 39 37" fill="none" xmlns="http://www.w3.org/2000/svg">
<path d="M6.09375 4.23926C5.66277 4.23926 5.24945 4.40168 4.9447 4.6908C4.63995 4.97992 4.46875 5.37205 4.46875 5.78092V31.2184C4.46875 31.6273 4.63995 32.0194 4.9447 32.3085C5.24945 32.5977 5.66277 32.7601 6.09375 32.7601H32.9062C33.3372 32.7601 33.7505 32.5977 34.0553 32.3085C34.36 32.0194 34.5312 31.6273 34.5312 31.2184V5.78092C34.5312 5.37205 34.36 4.97992 34.0553 4.6908C33.7505 4.40168 33.3372 4.23926 32.9062 4.23926H6.09375Z" stroke="#090909" stroke-linecap="round" stroke-linejoin="round"/>
<path d="M27.6283 22.8562C27.36 23.3029 26.9718 23.6742 26.5031 23.9324C26.0345 24.1906 25.5022 24.3265 24.9602 24.3263C24.557 24.3263 24.1577 24.251 23.7852 24.1046C23.4126 23.9582 23.0741 23.7436 22.789 23.4731C22.5039 23.2026 22.2777 22.8815 22.1234 22.528C21.9691 22.1746 21.8896 21.7958 21.8896 21.4132V19.5196C21.8896 18.747 22.2132 18.006 22.789 17.4597C23.3649 16.9134 24.1459 16.6064 24.9602 16.6064C25.3635 16.6064 25.7628 16.6818 26.1353 16.8282C26.5079 16.9746 26.8464 17.1891 27.1315 17.4597C27.4167 17.7302 27.6429 18.0513 27.7972 18.4048C27.9515 18.7582 28.0309 19.137 28.0309 19.5196V20.4664H21.8896" stroke="#090909" stroke-linecap="round" stroke-linejoin="round"/>
<path d="M16.0353 18.5002C16.847 18.5041 17.624 18.8128 18.1964 19.3587C18.7689 19.9046 19.0902 20.6433 19.0902 21.4133C19.0902 22.1834 18.7689 22.9221 18.1964 23.468C17.624 24.0139 16.847 24.3226 16.0353 24.3265H10.9688V12.6738H16.0353C16.847 12.6778 17.624 12.9865 18.1964 13.5324C18.7689 14.0783 19.0902 14.817 19.0902 15.587C19.0902 16.357 18.7689 17.0957 18.1964 17.6416C17.624 18.1875 16.847 18.4962 16.0353 18.5002Z" stroke="#090909" stroke-linecap="round" stroke-linejoin="round"/>
<path d="M16.0353 18.5H10.9688" stroke="#090909" stroke-linecap="round" stroke-linejoin="round"/>
<path d="M21.8896 12.6738H28.0309" stroke="#090909" stroke-linecap="round" stroke-linejoin="round"/>
</svg>
