<svg width="32" height="32" viewBox="0 0 32 32" fill="none" xmlns="http://www.w3.org/2000/svg">
<path fill-rule="evenodd" clip-rule="evenodd" d="M16 1C12.4388 0.998125 8.99322 2.29643 6.28026 4.66244C3.5673 7.02844 1.76414 10.3076 1.19365 13.9128C0.623164 17.518 1.32261 21.2137 3.16674 24.3382C5.01087 27.4628 7.87925 29.812 11.2583 30.9653C12.0114 31.1083 12.2833 30.6363 12.2833 30.2501C12.2833 29.8639 12.2833 28.9199 12.2833 27.6398C8.09942 28.5695 7.23475 25.5801 7.23475 25.5801C6.95801 24.6343 6.35589 23.8236 5.54028 23.2987C4.18052 22.3476 5.64488 22.3619 5.64488 22.3619C6.11985 22.4301 6.57339 22.6085 6.97096 22.8836C7.36852 23.1588 7.69962 23.5233 7.93904 23.9495C9.27788 26.3024 11.4256 25.623 12.3042 25.2297C12.3736 24.4484 12.7123 23.7181 13.2595 23.17C9.92639 22.7838 6.42587 21.4679 6.42587 15.575C6.40378 14.0462 6.95839 12.5678 7.9739 11.4485C7.51253 10.123 7.56495 8.66632 8.12034 7.37924C8.12034 7.37924 9.37551 6.96445 12.2415 8.9526C14.6977 8.26603 17.2883 8.26603 19.7446 8.9526C22.6105 6.96445 23.8657 7.37924 23.8657 7.37924C24.4169 8.66731 24.4692 10.1223 24.0121 11.4485C25.0257 12.5685 25.5779 14.0471 25.5532 15.575C25.5532 21.4822 22.0666 22.7767 18.7125 23.1629C19.0724 23.5368 19.3496 23.9859 19.5253 24.4795C19.701 24.9731 19.771 25.4997 19.7306 26.0235C19.7306 28.076 19.7306 29.7352 19.7306 30.243C19.7306 30.7507 20.0026 31.1298 20.7626 30.9581C24.1382 29.8004 27.002 27.4487 28.8418 24.3237C30.6816 21.1988 31.3773 17.5045 30.8046 13.9017C30.2318 10.2988 28.4279 7.02249 25.7155 4.65877C23.0032 2.29504 19.5593 0.998122 16 1Z" stroke="#090909" stroke-width="1.1" stroke-linecap="round" stroke-linejoin="round"/>
</svg>
