<svg width="34" height="34" viewBox="0 0 34 34" fill="none" xmlns="http://www.w3.org/2000/svg">
<mask id="path-1-inside-1_770_204" fill="white">
<path d="M12 9.5C12 9.74723 11.9267 9.9889 11.7893 10.1945C11.652 10.4 11.4568 10.5602 11.2284 10.6548C10.9999 10.7495 10.7486 10.7742 10.5061 10.726C10.2637 10.6778 10.0409 10.5587 9.86612 10.3839C9.6913 10.2091 9.57225 9.98634 9.52402 9.74386C9.47579 9.50139 9.50054 9.25005 9.59515 9.02165C9.68976 8.79324 9.84998 8.59801 10.0555 8.46066C10.2611 8.32331 10.5028 8.25 10.75 8.25C10.9142 8.25 11.0767 8.28233 11.2284 8.34515C11.38 8.40797 11.5178 8.50004 11.6339 8.61611C11.75 8.73219 11.842 8.86999 11.9049 9.02164C11.9677 9.1733 12 9.33585 12 9.5ZM10.75 13.8752C10.5842 13.8752 10.4253 13.941 10.3081 14.0582C10.1908 14.1754 10.125 14.3344 10.125 14.5002V24.5002C10.125 24.6659 10.1908 24.8249 10.3081 24.9421C10.4253 25.0593 10.5842 25.1252 10.75 25.1252C10.9158 25.1252 11.0747 25.0593 11.1919 24.9421C11.3092 24.8249 11.375 24.6659 11.375 24.5002V14.5002C11.375 14.3344 11.3092 14.1754 11.1919 14.0582C11.0747 13.941 10.9158 13.8752 10.75 13.8752ZM20.125 13.8752C19.4151 13.8751 18.7134 14.0265 18.0667 14.3193C17.42 14.6122 16.8432 15.0396 16.375 15.5732V14.5002C16.375 14.3344 16.3092 14.1754 16.1919 14.0582C16.0747 13.941 15.9158 13.8752 15.75 13.8752C15.5842 13.8752 15.4253 13.941 15.3081 14.0582C15.1908 14.1754 15.125 14.3344 15.125 14.5002V24.5002C15.125 24.6659 15.1908 24.8249 15.3081 24.9421C15.4253 25.0593 15.5842 25.1252 15.75 25.1252C15.9158 25.1252 16.0747 25.0593 16.1919 24.9421C16.3092 24.8249 16.375 24.6659 16.375 24.5002V18.8752C16.375 17.8806 16.7701 16.9268 17.4733 16.2235C18.1766 15.5202 19.1304 15.1252 20.125 15.1252C21.1196 15.1252 22.0734 15.5202 22.7767 16.2235C23.4799 16.9268 23.875 17.8806 23.875 18.8752V24.5002C23.875 24.6659 23.9408 24.8249 24.0581 24.9421C24.1753 25.0593 24.3342 25.1252 24.5 25.1252C24.6658 25.1252 24.8247 25.0593 24.9419 24.9421C25.0592 24.8249 25.125 24.6659 25.125 24.5002V18.8752C25.1235 17.5495 24.5962 16.2786 23.6589 15.3413C22.7215 14.4039 21.4506 13.8767 20.125 13.8752ZM32 3.875V30.125C31.9994 30.6221 31.8017 31.0987 31.4502 31.4502C31.0987 31.8017 30.6221 31.9994 30.125 32H3.875C3.37789 31.9994 2.90131 31.8017 2.5498 31.4502C2.1983 31.0987 2.00057 30.6221 2 30.125V3.875C2.00056 3.37789 2.19829 2.9013 2.5498 2.5498C2.9013 2.19829 3.37789 2.00056 3.875 2H30.125C30.6221 2.00056 31.0987 2.19829 31.4502 2.5498C31.8017 2.9013 31.9994 3.37789 32 3.875ZM30.75 3.875C30.7498 3.7093 30.6839 3.55044 30.5667 3.43327C30.4496 3.3161 30.2907 3.25019 30.125 3.25H3.875C3.7093 3.25019 3.55044 3.3161 3.43327 3.43327C3.3161 3.55044 3.25019 3.7093 3.25 3.875V30.125C3.25019 30.2907 3.3161 30.4496 3.43327 30.5667C3.55044 30.6839 3.7093 30.7498 3.875 30.75H30.125C30.2907 30.7498 30.4496 30.6839 30.5667 30.5667C30.6839 30.4496 30.7498 30.2907 30.75 30.125V3.875Z"/>
</mask>
<path d="M12 9.5C12 9.74723 11.9267 9.9889 11.7893 10.1945C11.652 10.4 11.4568 10.5602 11.2284 10.6548C10.9999 10.7495 10.7486 10.7742 10.5061 10.726C10.2637 10.6778 10.0409 10.5587 9.86612 10.3839C9.6913 10.2091 9.57225 9.98634 9.52402 9.74386C9.47579 9.50139 9.50054 9.25005 9.59515 9.02165C9.68976 8.79324 9.84998 8.59801 10.0555 8.46066C10.2611 8.32331 10.5028 8.25 10.75 8.25C10.9142 8.25 11.0767 8.28233 11.2284 8.34515C11.38 8.40797 11.5178 8.50004 11.6339 8.61611C11.75 8.73219 11.842 8.86999 11.9049 9.02164C11.9677 9.1733 12 9.33585 12 9.5ZM10.75 13.8752C10.5842 13.8752 10.4253 13.941 10.3081 14.0582C10.1908 14.1754 10.125 14.3344 10.125 14.5002V24.5002C10.125 24.6659 10.1908 24.8249 10.3081 24.9421C10.4253 25.0593 10.5842 25.1252 10.75 25.1252C10.9158 25.1252 11.0747 25.0593 11.1919 24.9421C11.3092 24.8249 11.375 24.6659 11.375 24.5002V14.5002C11.375 14.3344 11.3092 14.1754 11.1919 14.0582C11.0747 13.941 10.9158 13.8752 10.75 13.8752ZM20.125 13.8752C19.4151 13.8751 18.7134 14.0265 18.0667 14.3193C17.42 14.6122 16.8432 15.0396 16.375 15.5732V14.5002C16.375 14.3344 16.3092 14.1754 16.1919 14.0582C16.0747 13.941 15.9158 13.8752 15.75 13.8752C15.5842 13.8752 15.4253 13.941 15.3081 14.0582C15.1908 14.1754 15.125 14.3344 15.125 14.5002V24.5002C15.125 24.6659 15.1908 24.8249 15.3081 24.9421C15.4253 25.0593 15.5842 25.1252 15.75 25.1252C15.9158 25.1252 16.0747 25.0593 16.1919 24.9421C16.3092 24.8249 16.375 24.6659 16.375 24.5002V18.8752C16.375 17.8806 16.7701 16.9268 17.4733 16.2235C18.1766 15.5202 19.1304 15.1252 20.125 15.1252C21.1196 15.1252 22.0734 15.5202 22.7767 16.2235C23.4799 16.9268 23.875 17.8806 23.875 18.8752V24.5002C23.875 24.6659 23.9408 24.8249 24.0581 24.9421C24.1753 25.0593 24.3342 25.1252 24.5 25.1252C24.6658 25.1252 24.8247 25.0593 24.9419 24.9421C25.0592 24.8249 25.125 24.6659 25.125 24.5002V18.8752C25.1235 17.5495 24.5962 16.2786 23.6589 15.3413C22.7215 14.4039 21.4506 13.8767 20.125 13.8752ZM32 3.875V30.125C31.9994 30.6221 31.8017 31.0987 31.4502 31.4502C31.0987 31.8017 30.6221 31.9994 30.125 32H3.875C3.37789 31.9994 2.90131 31.8017 2.5498 31.4502C2.1983 31.0987 2.00057 30.6221 2 30.125V3.875C2.00056 3.37789 2.19829 2.9013 2.5498 2.5498C2.9013 2.19829 3.37789 2.00056 3.875 2H30.125C30.6221 2.00056 31.0987 2.19829 31.4502 2.5498C31.8017 2.9013 31.9994 3.37789 32 3.875ZM30.75 3.875C30.7498 3.7093 30.6839 3.55044 30.5667 3.43327C30.4496 3.3161 30.2907 3.25019 30.125 3.25H3.875C3.7093 3.25019 3.55044 3.3161 3.43327 3.43327C3.3161 3.55044 3.25019 3.7093 3.25 3.875V30.125C3.25019 30.2907 3.3161 30.4496 3.43327 30.5667C3.55044 30.6839 3.7093 30.7498 3.875 30.75H30.125C30.2907 30.7498 30.4496 30.6839 30.5667 30.5667C30.6839 30.4496 30.7498 30.2907 30.75 30.125V3.875Z" fill="#090909"/>
<path d="M12 9.5L9 9.49997V9.5H12ZM10.75 8.25V11.25H10.75L10.75 8.25ZM20.125 13.8752L20.1284 10.8752L20.1254 10.8752L20.125 13.8752ZM16.375 15.5732H13.375V23.5402L18.6299 17.552L16.375 15.5732ZM20.125 15.1252V12.1252V15.1252ZM25.125 18.8752H28.125L28.125 18.8718L25.125 18.8752ZM32 3.875H35L35 3.87161L32 3.875ZM32 30.125L35 30.1284V30.125H32ZM30.125 32V35L30.1284 35L30.125 32ZM3.875 32L3.87157 35H3.875V32ZM2 30.125H-1L-0.999998 30.1284L2 30.125ZM2 3.875L-1 3.87161V3.875H2ZM3.875 2V-1L3.87161 -0.999998L3.875 2ZM30.125 2L30.1284 -1H30.125V2ZM30.75 3.875H33.75L33.75 3.87157L30.75 3.875ZM30.125 3.25L30.1284 0.25H30.125V3.25ZM3.875 3.25V0.249998L3.87157 0.250002L3.875 3.25ZM3.25 3.875L0.25 3.87157V3.875H3.25ZM3.25 30.125H0.249998L0.250002 30.1284L3.25 30.125ZM3.875 30.75L3.87157 33.75H3.875V30.75ZM30.125 30.75V33.75L30.1284 33.75L30.125 30.75ZM30.75 30.125L33.75 30.1284V30.125H30.75ZM9 9.5C9 9.15389 9.10263 8.81554 9.29493 8.52775L14.2837 11.8612C14.7507 11.1623 15 10.3406 15 9.5H9ZM9.29493 8.52775C9.48722 8.23996 9.76054 8.01566 10.0803 7.88321L12.3764 13.4265C13.153 13.1048 13.8167 12.5601 14.2837 11.8612L9.29493 8.52775ZM10.0803 7.88321C10.4001 7.75076 10.7519 7.7161 11.0914 7.78363L9.92087 13.6683C10.7453 13.8323 11.5998 13.7482 12.3764 13.4265L10.0803 7.88321ZM11.0914 7.78363C11.4309 7.85115 11.7427 8.01783 11.9874 8.26256L7.7448 12.5052C8.33916 13.0996 9.09644 13.5043 9.92087 13.6683L11.0914 7.78363ZM11.9874 8.26256C12.2322 8.5073 12.3988 8.81912 12.4664 9.15859L6.58166 10.3291C6.74565 11.1536 7.15043 11.9108 7.7448 12.5052L11.9874 8.26256ZM12.4664 9.15859C12.5339 9.49806 12.4992 9.84993 12.3668 10.1697L6.82351 7.8736C6.50184 8.65018 6.41767 9.50471 6.58166 10.3291L12.4664 9.15859ZM12.3668 10.1697C12.2343 10.4895 12.01 10.7628 11.7222 10.9551L8.38883 5.96625C7.68991 6.43325 7.14518 7.09701 6.82351 7.8736L12.3668 10.1697ZM11.7222 10.9551C11.4345 11.1474 11.0961 11.25 10.75 11.25V5.25C9.90943 5.25 9.08774 5.49926 8.38883 5.96625L11.7222 10.9551ZM10.75 11.25C10.5202 11.25 10.2926 11.2047 10.0803 11.1168L12.3764 5.5735C11.8608 5.35992 11.3081 5.25 10.75 5.25L10.75 11.25ZM10.0803 11.1168C9.868 11.0288 9.67507 10.8999 9.51257 10.7374L13.7552 6.49479C13.3606 6.10014 12.892 5.78709 12.3764 5.5735L10.0803 11.1168ZM9.51257 10.7374C9.35006 10.5749 9.22116 10.382 9.13321 10.1697L14.6765 7.87361C14.4629 7.35797 14.1499 6.88945 13.7552 6.49479L9.51257 10.7374ZM9.13321 10.1697C9.04526 9.95736 9 9.72979 9 9.49997L15 9.50003C15 8.9419 14.8901 8.38924 14.6765 7.87361L9.13321 10.1697ZM10.75 10.8752C9.7886 10.8752 8.86657 11.2571 8.18674 11.9369L12.4294 16.1795C11.984 16.6249 11.3799 16.8752 10.75 16.8752V10.8752ZM8.18674 11.9369C7.50691 12.6167 7.125 13.5388 7.125 14.5002H13.125C13.125 15.13 12.8748 15.7341 12.4294 16.1795L8.18674 11.9369ZM7.125 14.5002V24.5002H13.125V14.5002H7.125ZM7.125 24.5002C7.125 25.4616 7.50692 26.3836 8.18674 27.0634L12.4294 22.8208C12.8748 23.2662 13.125 23.8703 13.125 24.5002H7.125ZM8.18674 27.0634C8.86655 27.7432 9.78857 28.1252 10.75 28.1252V22.1252C11.3799 22.1252 11.984 22.3754 12.4294 22.8208L8.18674 27.0634ZM10.75 28.1252C11.7114 28.1252 12.6335 27.7432 13.3133 27.0634L9.07062 22.8208C9.51601 22.3754 10.1201 22.1252 10.75 22.1252V28.1252ZM13.3133 27.0634C13.9931 26.3836 14.375 25.4616 14.375 24.5002H8.375C8.375 23.8703 8.62523 23.2662 9.07062 22.8208L13.3133 27.0634ZM14.375 24.5002V14.5002H8.375V24.5002H14.375ZM14.375 14.5002C14.375 13.5388 13.9931 12.6167 13.3133 11.9369L9.07062 16.1795C8.62522 15.7341 8.375 15.13 8.375 14.5002H14.375ZM13.3133 11.9369C12.6334 11.2571 11.7114 10.8752 10.75 10.8752V16.8752C10.1201 16.8752 9.51603 16.6249 9.07062 16.1795L13.3133 11.9369ZM20.1254 10.8752C18.9886 10.875 17.8648 11.1175 16.8292 11.5864L19.3042 17.0522C19.5619 16.9355 19.8416 16.8751 20.1246 16.8752L20.1254 10.8752ZM16.8292 11.5864C15.7935 12.0554 14.87 12.74 14.1201 13.5945L18.6299 17.552C18.8165 17.3393 19.0464 17.1689 19.3042 17.0522L16.8292 11.5864ZM19.375 15.5732V14.5002H13.375V15.5732H19.375ZM19.375 14.5002C19.375 13.5388 18.9931 12.6167 18.3133 11.9369L14.0706 16.1795C13.6252 15.7341 13.375 15.13 13.375 14.5002H19.375ZM18.3133 11.9369C17.6334 11.2571 16.7114 10.8752 15.75 10.8752V16.8752C15.1201 16.8752 14.516 16.6249 14.0706 16.1795L18.3133 11.9369ZM15.75 10.8752C14.7886 10.8752 13.8666 11.2571 13.1867 11.9369L17.4294 16.1795C16.984 16.6249 16.3799 16.8752 15.75 16.8752V10.8752ZM13.1867 11.9369C12.5069 12.6167 12.125 13.5388 12.125 14.5002H18.125C18.125 15.13 17.8748 15.7341 17.4294 16.1795L13.1867 11.9369ZM12.125 14.5002V24.5002H18.125V14.5002H12.125ZM12.125 24.5002C12.125 25.4616 12.5069 26.3836 13.1867 27.0634L17.4294 22.8208C17.8748 23.2662 18.125 23.8703 18.125 24.5002H12.125ZM13.1867 27.0634C13.8665 27.7432 14.7886 28.1252 15.75 28.1252V22.1252C16.3799 22.1252 16.984 22.3754 17.4294 22.8208L13.1867 27.0634ZM15.75 28.1252C16.7114 28.1252 17.6335 27.7432 18.3133 27.0634L14.0706 22.8208C14.516 22.3754 15.1201 22.1252 15.75 22.1252V28.1252ZM18.3133 27.0634C18.9931 26.3836 19.375 25.4616 19.375 24.5002H13.375C13.375 23.8703 13.6252 23.2662 14.0706 22.8208L18.3133 27.0634ZM19.375 24.5002V18.8752H13.375V24.5002H19.375ZM19.375 18.8752C19.375 18.6762 19.454 18.4855 19.5947 18.3448L15.352 14.1022C14.0862 15.3681 13.375 17.0849 13.375 18.8752H19.375ZM19.5947 18.3448C19.7353 18.2042 19.9261 18.1252 20.125 18.1252V12.1252C18.3348 12.1252 16.6179 12.8363 15.352 14.1022L19.5947 18.3448ZM20.125 18.1252C20.3239 18.1252 20.5147 18.2042 20.6553 18.3448L24.898 14.1022C23.6321 12.8363 21.9152 12.1252 20.125 12.1252V18.1252ZM20.6553 18.3448C20.796 18.4855 20.875 18.6762 20.875 18.8752H26.875C26.875 17.0849 26.1638 15.3681 24.898 14.1022L20.6553 18.3448ZM20.875 18.8752V24.5002H26.875V18.8752H20.875ZM20.875 24.5002C20.875 25.4616 21.2569 26.3836 21.9367 27.0634L26.1794 22.8208C26.6248 23.2662 26.875 23.8703 26.875 24.5002H20.875ZM21.9367 27.0634C22.6165 27.7432 23.5386 28.1252 24.5 28.1252V22.1252C25.1299 22.1252 25.734 22.3754 26.1794 22.8208L21.9367 27.0634ZM24.5 28.1252C25.4614 28.1252 26.3835 27.7432 27.0633 27.0634L22.8206 22.8208C23.266 22.3754 23.8701 22.1252 24.5 22.1252V28.1252ZM27.0633 27.0634C27.7431 26.3836 28.125 25.4616 28.125 24.5002H22.125C22.125 23.8703 22.3752 23.2662 22.8206 22.8208L27.0633 27.0634ZM28.125 24.5002V18.8752H22.125V24.5002H28.125ZM28.125 18.8718C28.1226 16.7517 27.2793 14.7191 25.7802 13.22L21.5376 17.4626C21.9131 17.8382 22.1244 18.3474 22.125 18.8785L28.125 18.8718ZM25.7802 13.22C24.2811 11.7208 22.2485 10.8776 20.1284 10.8752L20.1216 16.8752C20.6528 16.8758 21.162 17.087 21.5376 17.4626L25.7802 13.22ZM29 3.875V30.125H35V3.875H29ZM29 30.1216C29.0003 29.8242 29.1186 29.5391 29.3289 29.3289L33.5715 33.5715C34.4848 32.6582 34.9985 31.42 35 30.1284L29 30.1216ZM29.3289 29.3289C29.5391 29.1186 29.8242 29.0003 30.1216 29L30.1284 35C31.42 34.9985 32.6582 34.4848 33.5715 33.5715L29.3289 29.3289ZM30.125 29H3.875V35H30.125V29ZM3.87843 29C4.17578 29.0003 4.46086 29.1186 4.67112 29.3289L0.428482 33.5715C1.34176 34.4848 2.58001 34.9985 3.87157 35L3.87843 29ZM4.67112 29.3289C4.88139 29.5391 4.99966 29.8242 5 30.1216L-0.999998 30.1284C-0.998521 31.42 -0.484795 32.6582 0.428482 33.5715L4.67112 29.3289ZM5 30.125V3.875H-1V30.125H5ZM5 3.87839C4.99966 4.17576 4.88138 4.46085 4.67112 4.67112L0.428475 0.428475C-0.484811 1.34176 -0.998538 2.58003 -0.999998 3.87161L5 3.87839ZM4.67112 4.67112C4.46085 4.88138 4.17576 4.99966 3.87839 5L3.87161 -0.999998C2.58003 -0.998538 1.34176 -0.484811 0.428475 0.428475L4.67112 4.67112ZM3.875 5H30.125V-1H3.875V5ZM30.1216 5C29.8242 4.99966 29.5392 4.88138 29.3289 4.67112L33.5715 0.428475C32.6582 -0.484812 31.42 -0.998538 30.1284 -0.999998L30.1216 5ZM29.3289 4.67112C29.1186 4.46085 29.0003 4.17576 29 3.87839L35 3.87161C34.9985 2.58003 34.4848 1.34176 33.5715 0.428475L29.3289 4.67112ZM33.75 3.87157C33.7489 2.91141 33.367 1.99089 32.6881 1.31195L28.4454 5.55459C28.0008 5.10999 27.7507 4.50719 27.75 3.87843L33.75 3.87157ZM32.6881 1.31195C32.0091 0.633009 31.0886 0.251099 30.1284 0.250002L30.1216 6.25C29.4928 6.24928 28.89 5.99919 28.4454 5.55459L32.6881 1.31195ZM30.125 0.25H3.875V6.25H30.125V0.25ZM3.87157 0.250002C2.91141 0.251099 1.99088 0.633011 1.31195 1.31195L5.55459 5.55459C5.10999 5.99919 4.50719 6.24928 3.87843 6.25L3.87157 0.250002ZM1.31195 1.31195C0.633011 1.99088 0.251099 2.91141 0.250002 3.87157L6.25 3.87843C6.24928 4.50719 5.99919 5.10999 5.55459 5.55459L1.31195 1.31195ZM0.25 3.875V30.125H6.25V3.875H0.25ZM0.250002 30.1284C0.251099 31.0886 0.633009 32.0091 1.31195 32.6881L5.55459 28.4454C5.99919 28.89 6.24928 29.4928 6.25 30.1216L0.250002 30.1284ZM1.31195 32.6881C1.99089 33.367 2.91141 33.7489 3.87157 33.75L3.87843 27.75C4.50719 27.7507 5.10999 28.0008 5.55459 28.4454L1.31195 32.6881ZM3.875 33.75H30.125V27.75H3.875V33.75ZM30.1284 33.75C31.0886 33.7489 32.0091 33.367 32.6881 32.6881L28.4454 28.4454C28.89 28.0008 29.4928 27.7507 30.1216 27.75L30.1284 33.75ZM32.6881 32.6881C33.367 32.0091 33.7489 31.0886 33.75 30.1284L27.75 30.1216C27.7507 29.4928 28.0008 28.89 28.4454 28.4454L32.6881 32.6881ZM33.75 30.125V3.875H27.75V30.125H33.75Z" fill="#090909" mask="url(#path-1-inside-1_770_204)"/>
</svg>
