<svg width="191" height="15" viewBox="0 0 191 15" fill="none" xmlns="http://www.w3.org/2000/svg">
<path d="M1.86 14H0.68V0.359999H1.86V8.64L6.16 5.98L15.62 0.359999H17.44L8.46 5.82L17.66 14H16.06L7.44 6.42L1.86 9.78V14ZM21.015 11.24V14H19.855V11.24H21.015ZM24.1761 14V0.359999H37.0361C40.3561 0.359999 41.9161 1.66 41.9161 4.44C41.9161 7.26 40.3561 8.58 37.0361 8.58H25.3561V14H24.1761ZM37.0361 1.4H25.3561V7.54H37.0361C39.6361 7.54 40.7161 6.66 40.7161 4.48C40.7161 2.28 39.6361 1.4 37.0361 1.4ZM61.6705 14H44.4105V0.359999H61.6705V1.36H45.5905V6.56H61.2705V7.46H45.5905V13H61.6705V14ZM72.3611 1.4H64.0211V0.359999H81.8611V1.4H73.5411V14H72.3611V1.4ZM85.6295 14H84.4495V0.359999H97.1295C100.45 0.359999 102.01 1.7 102.01 4.58C102.01 7.38 100.55 8.76 97.2695 8.8H95.2695L96.5895 9.82L101.59 14H100.03L93.8695 8.84H85.6295V14ZM85.6295 1.4V7.86H97.1495C99.7495 7.86 100.81 6.92 100.81 4.64C100.81 2.34 99.7495 1.4 97.1495 1.4H85.6295ZM106.411 14H105.231V0.359999H106.411V14ZM118.302 14L108.522 0.359999H109.962L119.082 13.02L128.202 0.359999H129.622L119.822 14H118.302ZM148.578 10.58C148.578 13.2 146.798 14.2 140.358 14.2C137.458 14.2 133.698 13.82 131.438 13.34L131.618 12.32C133.998 12.8 137.918 13.2 140.538 13.2C146.338 13.2 147.438 12.44 147.438 10.56C147.438 8.54 146.258 8.22 144.018 7.94L136.058 7.08C133.138 6.78 131.238 6.22 131.238 3.74C131.238 1.12 133.178 0.159999 139.218 0.159999C141.958 0.159999 145.718 0.539999 147.998 1.02L147.818 2C145.518 1.54 141.558 1.16 139.058 1.16C133.518 1.16 132.378 1.88 132.378 3.72C132.378 5.48 133.718 5.82 136.018 6.08L143.678 6.9C146.578 7.2 148.578 7.66 148.578 10.58ZM152.739 14H151.559V0.359999H152.739V8.64L157.039 5.98L166.499 0.359999H168.319L159.339 5.82L168.539 14H166.939L158.319 6.42L152.739 9.78V14ZM189.453 14L186.933 10.52H173.413L170.873 14H169.433L179.412 0.359999H180.933L190.892 14H189.453ZM174.093 9.58H186.233L180.173 1.22L174.093 9.58Z" fill="#E1C597"/>
</svg>
